<?xml version="1.0" encoding="UTF-8" standalone="no"?>
<!DOCTYPE svg PUBLIC "-//W3C//DTD SVG 1.1//EN" "http://www.w3.org/Graphics/SVG/1.1/DTD/svg11.dtd">
<svg width="100%" height="100%" viewBox="0 0 557 362" version="1.1" xmlns="http://www.w3.org/2000/svg" xmlns:xlink="http://www.w3.org/1999/xlink" xml:space="preserve" xmlns:serif="http://www.serif.com/" style="fill-rule:evenodd;clip-rule:evenodd;stroke-linejoin:round;stroke-miterlimit:2;">
    <g transform="matrix(1,0,0,1,-1405.63,-341.178)">
        <g opacity="0.78">
            <circle cx="1492.03" cy="565.702" r="86.398" style="fill:white;"/>
            <g transform="matrix(1.12937,0,0,1.12937,-121.429,-154.448)">
                <circle cx="1492.03" cy="565.702" r="86.398" style="fill:white;"/>
            </g>
            <g transform="matrix(1.39942,0,0,1.39942,-403.206,-329.568)">
                <circle cx="1492.03" cy="565.702" r="86.398" style="fill:white;"/>
            </g>
            <g transform="matrix(1,0,0,1,106.336,33.5322)">
                <circle cx="1492.03" cy="565.702" r="86.398" style="fill:white;"/>
            </g>
            <g transform="matrix(1,0,0,1,90.3255,-190.016)">
                <circle cx="1646.4" cy="772.031" r="119.931" style="fill:white;"/>
            </g>
            <g transform="matrix(1,0,0,1,147.119,-308.97)">
                <circle cx="1646.4" cy="772.031" r="119.931" style="fill:white;"/>
            </g>
            <g transform="matrix(1,0,0,1,195.454,-189.039)">
                <circle cx="1646.4" cy="772.031" r="119.931" style="fill:white;"/>
            </g>
        </g>
    </g>
</svg>
