<?xml version="1.0" encoding="UTF-8" standalone="no"?>
<!DOCTYPE svg PUBLIC "-//W3C//DTD SVG 1.1//EN" "http://www.w3.org/Graphics/SVG/1.1/DTD/svg11.dtd">
<svg width="100%" height="100%" viewBox="0 0 431 278" version="1.1" xmlns="http://www.w3.org/2000/svg" xmlns:xlink="http://www.w3.org/1999/xlink" xml:space="preserve" xmlns:serif="http://www.serif.com/" style="fill-rule:evenodd;clip-rule:evenodd;stroke-linejoin:round;stroke-miterlimit:2;">
    <g transform="matrix(1,0,0,1,-1167.9,-801.028)">
        <g transform="matrix(0.970909,0.239447,-0.239447,0.970909,268.145,-305.742)">
            <g opacity="0.78">
                <g transform="matrix(1,0,0,1,302.387,-243.385)">
                    <circle cx="1228.14" cy="1212.47" r="76.703" style="fill:white;"/>
                </g>
                <g transform="matrix(1.07832,0,0,1.07832,135.5,-384.478)">
                    <circle cx="1228.14" cy="1212.47" r="76.703" style="fill:white;"/>
                </g>
                <g transform="matrix(1.07483,0,0,1.07483,51.3383,-416.558)">
                    <circle cx="1228.14" cy="1212.47" r="76.703" style="fill:white;"/>
                </g>
                <g transform="matrix(1.07483,0,0,1.07483,-0.621552,-369.431)">
                    <circle cx="1228.14" cy="1212.47" r="76.703" style="fill:white;"/>
                </g>
                <g transform="matrix(1.19298,0,0,1.19298,-196.152,-440.792)">
                    <circle cx="1228.14" cy="1212.47" r="76.703" style="fill:white;"/>
                </g>
                <g transform="matrix(1.19298,0,0,1.19298,-54.2258,-477.373)">
                    <circle cx="1228.14" cy="1212.47" r="76.703" style="fill:white;"/>
                </g>
            </g>
        </g>
    </g>
</svg>
